<svg width="0" height="0" class="hidden">
	<symbol xmlns="http://www.w3.org/2000/svg" viewBox="0 0 20 20" id="arrows">
		<path d="M10 18.3333C5.39752 18.3333 1.66669 14.6025 1.66669 9.99999C1.66669 5.39749 5.39752 1.66666 10 1.66666C14.6025 1.66666 18.3334 5.39749 18.3334 9.99999C18.3334 14.6025 14.6025 18.3333 10 18.3333ZM10 16.6667C11.7681 16.6667 13.4638 15.9643 14.7141 14.714C15.9643 13.4638 16.6667 11.7681 16.6667 9.99999C16.6667 8.23188 15.9643 6.53619 14.7141 5.28594C13.4638 4.0357 11.7681 3.33332 10 3.33332C8.23191 3.33332 6.53622 4.0357 5.28598 5.28594C4.03573 6.53619 3.33335 8.23188 3.33335 9.99999C3.33335 11.7681 4.03573 13.4638 5.28598 14.714C6.53622 15.9643 8.23191 16.6667 10 16.6667ZM5.83335 10.8333H13.3334V12.5H10V15L5.83335 10.8333ZM10 7.49999V4.99999L14.1667 9.16666H6.66669V7.49999H10Z" fill="currentColor"></path>
	</symbol>
	<symbol xmlns="http://www.w3.org/2000/svg" viewBox="0 0 20 20" id="hand-with-coins">
		<path d="M4.16665 7.49999C4.38766 7.49999 4.59962 7.58779 4.7559 7.74407C4.91218 7.90035 4.99998 8.11231 4.99998 8.33332C6.30926 8.33139 7.5808 8.77188 8.60831 9.58332H10.4166C11.5275 9.58332 12.525 10.0667 13.2116 10.8333H15.8333C16.621 10.8331 17.3927 11.0562 18.0588 11.4767C18.7248 11.8972 19.2581 12.4979 19.5966 13.2092C17.6258 15.81 14.435 17.5 10.8333 17.5C8.50831 17.5 6.54165 16.9975 4.94998 16.1183C4.89168 16.2792 4.78518 16.4182 4.64499 16.5163C4.50481 16.6144 4.33776 16.6669 4.16665 16.6667H1.66665C1.44563 16.6667 1.23367 16.5789 1.07739 16.4226C0.92111 16.2663 0.833313 16.0543 0.833313 15.8333V8.33332C0.833313 8.11231 0.92111 7.90035 1.07739 7.74407C1.23367 7.58779 1.44563 7.49999 1.66665 7.49999H4.16665ZM5.00081 9.99999L4.99998 14.185L5.03748 14.2117C6.53331 15.2617 8.48165 15.8333 10.8333 15.8333C13.3366 15.8333 15.6658 14.87 17.3625 13.225L17.4733 13.1142L17.3733 13.0308C16.9798 12.7226 16.5028 12.5397 16.0041 12.5058L15.8333 12.5H14.0741C14.1341 12.7683 14.1666 13.0467 14.1666 13.3333V14.1667H6.66665V12.5L12.325 12.4992L12.2966 12.4342C12.1369 12.1004 11.8913 11.8152 11.5849 11.6079C11.2785 11.4005 10.9225 11.2784 10.5533 11.2542L10.4166 11.25H7.97498C7.58774 10.8539 7.12521 10.5393 6.61458 10.3246C6.10396 10.11 5.55556 9.99959 5.00165 9.99999H5.00081ZM3.33331 9.16666H2.49998V15H3.33331V9.16666ZM15 4.16666C15.663 4.16666 16.2989 4.43005 16.7677 4.89889C17.2366 5.36773 17.5 6.00362 17.5 6.66666C17.5 7.3297 17.2366 7.96558 16.7677 8.43442C16.2989 8.90326 15.663 9.16666 15 9.16666C14.3369 9.16666 13.7011 8.90326 13.2322 8.43442C12.7634 7.96558 12.5 7.3297 12.5 6.66666C12.5 6.00362 12.7634 5.36773 13.2322 4.89889C13.7011 4.43005 14.3369 4.16666 15 4.16666ZM15 5.83332C14.779 5.83332 14.567 5.92112 14.4107 6.0774C14.2544 6.23368 14.1666 6.44564 14.1666 6.66666C14.1666 6.88767 14.2544 7.09963 14.4107 7.25591C14.567 7.41219 14.779 7.49999 15 7.49999C15.221 7.49999 15.433 7.41219 15.5892 7.25591C15.7455 7.09963 15.8333 6.88767 15.8333 6.66666C15.8333 6.44564 15.7455 6.23368 15.5892 6.0774C15.433 5.92112 15.221 5.83332 15 5.83332ZM9.16665 1.66666C9.82969 1.66666 10.4656 1.93005 10.9344 2.39889C11.4033 2.86773 11.6666 3.50362 11.6666 4.16666C11.6666 4.8297 11.4033 5.46558 10.9344 5.93442C10.4656 6.40326 9.82969 6.66666 9.16665 6.66666C8.50361 6.66666 7.86772 6.40326 7.39888 5.93442C6.93004 5.46558 6.66665 4.8297 6.66665 4.16666C6.66665 3.50362 6.93004 2.86773 7.39888 2.39889C7.86772 1.93005 8.50361 1.66666 9.16665 1.66666ZM9.16665 3.33332C8.94563 3.33332 8.73367 3.42112 8.57739 3.5774C8.42111 3.73368 8.33331 3.94564 8.33331 4.16666C8.33331 4.38767 8.42111 4.59963 8.57739 4.75591C8.73367 4.91219 8.94563 4.99999 9.16665 4.99999C9.38766 4.99999 9.59962 4.91219 9.7559 4.75591C9.91218 4.59963 9.99998 4.38767 9.99998 4.16666C9.99998 3.94564 9.91218 3.73368 9.7559 3.5774C9.59962 3.42112 9.38766 3.33332 9.16665 3.33332Z" fill="currentColor"></path>
	</symbol>
	<symbol xmlns="http://www.w3.org/2000/svg" viewBox="0 0 20 20" id="rating">
		<path d="M1.66669 10.8333H6.66669V17.5H1.66669V10.8333ZM13.3334 6.66667H18.3334V17.5H13.3334V6.66667ZM7.50002 2.5H12.5V17.5H7.50002V2.5ZM3.33335 12.5V15.8333H5.00002V12.5H3.33335ZM9.16669 4.16667V15.8333H10.8334V4.16667H9.16669ZM15 8.33333V15.8333H16.6667V8.33333H15Z" fill="currentColor"></path>
	</symbol>
	<symbol xmlns="http://www.w3.org/2000/svg" viewBox="0 0 18 15" id="handshake">
		<g clip-path="url(#clip0_128_305)">
			<path d="M13.7247 5.4H9.44966V6.975C9.44966 8.09156 8.54123 9 7.42466 9C6.3081 9 5.39966 8.09156 5.39966 6.975V3.555L3.57435 4.65188C3.03154 4.97531 2.69966 5.56313 2.69966 6.19313V7.52344L0.449665 8.82281C0.0193524 9.07031 -0.12971 9.62156 0.120602 10.0519L2.3706 13.95C2.6181 14.3803 3.16935 14.5266 3.59966 14.2791L6.50779 12.6H10.3497C11.3425 12.6 12.1497 11.7928 12.1497 10.8H12.5997C13.0975 10.8 13.4997 10.3978 13.4997 9.9V8.1H13.7247C14.0987 8.1 14.3997 7.79906 14.3997 7.425V6.075C14.3997 5.70094 14.0987 5.4 13.7247 5.4ZM17.8787 4.34813L15.6287 0.450002C15.3812 0.0196894 14.83 -0.126561 14.3997 0.120939L11.4915 1.8H8.61716C8.27966 1.8 7.9506 1.89563 7.66373 2.07281L6.72154 2.66063C6.45716 2.82375 6.29966 3.11344 6.29966 3.42281V6.975C6.29966 7.59656 6.8031 8.1 7.42466 8.1C8.04623 8.1 8.54966 7.59656 8.54966 6.975V4.5H13.7247C14.5937 4.5 15.2997 5.20594 15.2997 6.075V6.87656L17.5497 5.57719C17.98 5.32688 18.1262 4.77844 17.8787 4.34813Z" fill="currentColor"></path>
		</g>
		<defs>
			<clipPath id="clip0_128_305">
				<rect width="18" height="14.4" fill="white"></rect>
			</clipPath>
		</defs>
	</symbol>
	<symbol xmlns="http://www.w3.org/2000/svg" viewBox="0 0 20 20" id="dashboard">
		<path d="M10.8333 17.5V9.16667H17.5V17.5H10.8333ZM2.5 10.8333V2.5H9.16667V10.8333H2.5ZM7.5 9.16667V4.16667H4.16667V9.16667H7.5ZM2.5 17.5V12.5H9.16667V17.5H2.5ZM4.16667 15.8333H7.5V14.1667H4.16667V15.8333ZM12.5 15.8333H15.8333V10.8333H12.5V15.8333ZM10.8333 2.5H17.5V7.5H10.8333V2.5ZM12.5 4.16667V5.83333H15.8333V4.16667H12.5Z" fill="currentColor"></path>
	</symbol>
	<symbol xmlns="http://www.w3.org/2000/svg" viewBox="0 0 20 20" id="add-user">
		<path d="M11.6666 11.8766V13.6183C10.9124 13.3517 10.1052 13.2699 9.31282 13.3798C8.52042 13.4897 7.76598 13.7882 7.11284 14.2502C6.4597 14.7121 5.92693 15.324 5.55928 16.0345C5.19163 16.745 4.99983 17.5333 4.99998 18.3333L3.33331 18.3325C3.33305 17.3149 3.56575 16.3107 4.01356 15.397C4.46138 14.4832 5.11243 13.6841 5.91683 13.0608C6.72123 12.4376 7.65763 12.0068 8.65427 11.8014C9.65092 11.5959 10.6814 11.6214 11.6666 11.8758V11.8766ZM9.99998 10.8333C7.23748 10.8333 4.99998 8.59581 4.99998 5.83331C4.99998 3.07081 7.23748 0.833313 9.99998 0.833313C12.7625 0.833313 15 3.07081 15 5.83331C15 8.59581 12.7625 10.8333 9.99998 10.8333ZM9.99998 9.16665C11.8416 9.16665 13.3333 7.67498 13.3333 5.83331C13.3333 3.99165 11.8416 2.49998 9.99998 2.49998C8.15831 2.49998 6.66665 3.99165 6.66665 5.83331C6.66665 7.67498 8.15831 9.16665 9.99998 9.16665ZM15 14.1666V11.6666H16.6666V14.1666H19.1666V15.8333H16.6666V18.3333H15V15.8333H12.5V14.1666H15Z" fill="currentColor"></path>
	</symbol>
	<symbol xmlns="http://www.w3.org/2000/svg" viewBox="0 0 20 20" id="cloud">
		<path d="M0.833329 12.0834C0.832816 11.1629 1.06701 10.2575 1.51379 9.45278C1.96056 8.64803 2.60516 7.97049 3.38666 7.48419C3.59292 5.87593 4.37816 4.39795 5.59543 3.32683C6.81269 2.2557 8.37856 1.66486 10 1.66486C11.6214 1.66486 13.1873 2.2557 14.4046 3.32683C15.6218 4.39795 16.4071 5.87593 16.6133 7.48419C17.5827 8.08727 18.3367 8.9812 18.7677 10.0383C19.1988 11.0955 19.2848 12.2618 19.0134 13.3707C18.7421 14.4797 18.1274 15.4745 17.2569 16.2132C16.3865 16.952 15.305 17.3968 14.1667 17.4842L5.83333 17.5C3.03666 17.2717 0.833329 14.935 0.833329 12.0834ZM14.04 15.8225C14.8282 15.7619 15.5771 15.4538 16.1797 14.9421C16.7823 14.4305 17.2078 13.7415 17.3954 12.9736C17.583 12.2056 17.5231 11.3981 17.2243 10.6662C16.9256 9.9343 16.4031 9.31557 15.7317 8.89836L15.0592 8.47919L14.9592 7.69419C14.8034 6.48893 14.2141 5.38164 13.3013 4.57927C12.3886 3.77689 11.2149 3.33435 9.99958 3.33435C8.7843 3.33435 7.6106 3.77689 6.69785 4.57927C5.7851 5.38164 5.19577 6.48893 5.04 7.69419L4.94 8.47919L4.26916 8.89836C3.59774 9.31552 3.07531 9.93419 2.77649 10.666C2.47767 11.3978 2.41774 12.2053 2.60525 12.9732C2.79277 13.7411 3.21814 14.4301 3.82062 14.9418C4.4231 15.4535 5.17187 15.7618 5.96 15.8225L6.10416 15.8334H13.8958L14.04 15.8225ZM10.8333 10H13.3333L10 14.1667L6.66666 10H9.16666V6.66669H10.8333V10Z" fill="currentColor"></path>
	</symbol>
	<symbol xmlns="http://www.w3.org/2000/svg" viewBox="0 0 20 20" id="bell">
		<path d="M16.667 14.1665H18.3337V15.8332H1.66699V14.1665H3.33366V8.33317C3.33366 6.56506 4.03604 4.86937 5.28628 3.61913C6.53652 2.36888 8.23222 1.6665 10.0003 1.6665C11.7684 1.6665 13.4641 2.36888 14.7144 3.61913C15.9646 4.86937 16.667 6.56506 16.667 8.33317V14.1665ZM15.0003 14.1665V8.33317C15.0003 7.00709 14.4735 5.73532 13.5359 4.79764C12.5982 3.85995 11.3264 3.33317 10.0003 3.33317C8.67424 3.33317 7.40247 3.85995 6.46479 4.79764C5.52711 5.73532 5.00033 7.00709 5.00033 8.33317V14.1665H15.0003ZM7.50033 17.4998H12.5003V19.1665H7.50033V17.4998Z" fill="currentColor"></path>
	</symbol>
	<symbol xmlns="http://www.w3.org/2000/svg" viewBox="0 0 20 20" id="usa-flag">
		<g clip-path="url(#clip0_142_161)">
			<path d="M8.4375 6.2915V7.17171H18.3242C18.3104 6.88786 18.2807 6.529 18.1745 6.2915" fill="#EC1C24"></path>
			<path d="M17.7083 5.41113H8.4375V6.29134H18.1745C18.0687 5.96296 17.9115 5.66348 17.7083 5.41113Z" fill="#E6E7E8"></path>
			<path d="M15.7292 4.53125H8.4375V5.41146H17.7083C17.2737 4.86719 16.5583 4.53125 15.7292 4.53125Z" fill="#EC1C24"></path>
			<path d="M18.3242 7.17139H8.4375V8.0516H18.3333V7.46488C18.3333 7.41253 18.3299 7.36149 18.3284 7.31019C18.3273 7.29613 18.3258 7.25993 18.3242 7.17139Z" fill="#E6E7E8"></path>
			<path d="M8.4375 8.93197H18.3333V8.05176H8.4375V8.93197Z" fill="#EC1C24"></path>
			<path d="M8.4375 9.81234H18.3333V8.93213H8.4375V9.81234Z" fill="#E6E7E8"></path>
			<path d="M8.4375 9.81201H18.3333V10.6922H8.4375V9.81201Z" fill="#EC1C24"></path>
			<path d="M1.66702 10.6925V11.5727H18.3337V10.6925H8.43786H1.66702Z" fill="#E6E7E8"></path>
			<path d="M1.66702 11.5726H18.3337V12.4528H1.66702V11.5726Z" fill="#EC1C24"></path>
			<path d="M1.66832 12.9942C1.66832 12.9942 1.66598 13.2074 1.67223 13.333H18.3285C18.3358 13.2043 18.3324 12.9942 18.3324 12.9942L18.3337 12.4528H1.66702L1.66832 12.9942Z" fill="#E6E7E8"></path>
			<path d="M4.27083 15.9891H15.7292C16.5607 15.9891 17.2518 15.687 17.724 15.0933H2.27344C2.76094 15.7 3.4651 15.9891 4.26953 15.9891" fill="#EC1C24"></path>
			<path d="M2.27474 15.0936H17.7253C17.9312 14.8319 18.0851 14.5331 18.1784 14.2134H1.82422C1.9193 14.5321 2.07248 14.8305 2.27604 15.0936" fill="#E6E7E8"></path>
			<path d="M1.82292 14.2132H18.1771C18.2624 13.9269 18.3131 13.6314 18.3281 13.333H1.67188C1.69766 13.634 1.72161 13.8614 1.82292 14.2132Z" fill="#EC1C24"></path>
			<path d="M8.43783 4.53125H4.27116C2.54538 4.53125 1.66699 5.8138 1.66699 7.39583V10.6927H8.43783V4.53125Z" fill="#176496"></path>
			<path d="M2.39568 6.08727L2.53735 5.97841L2.67876 6.08727L2.62381 5.91227L2.7647 5.80524H2.59074L2.53683 5.62946L2.48318 5.80524H2.30949L2.45089 5.91227L2.39568 6.08727ZM3.33162 6.08727L3.47329 5.97841L3.6147 6.08727L3.56001 5.91227L3.70063 5.80524H3.52693L3.47303 5.62946L3.41938 5.80524H3.24516L3.38657 5.91227L3.33162 6.08727ZM4.36417 6.08727L4.50558 5.97841L4.64725 6.08727L4.5923 5.91227L4.73292 5.80524H4.56027L4.50558 5.62946L4.45167 5.80524H4.27902L4.41886 5.91227L4.36417 6.08727ZM5.38917 6.08727L5.53058 5.97841L5.67225 6.08727L5.61756 5.91227L5.75818 5.80524H5.58371L5.53058 5.62946L5.47693 5.80524H5.30298L5.44412 5.91227L5.38917 6.08727ZM6.41782 6.08727L6.55949 5.97841L6.70089 6.08727L6.64621 5.91227L6.78709 5.80524H6.61287L6.55923 5.62946L6.50558 5.80524H6.33188L6.47251 5.91227L6.41782 6.08727ZM2.89386 6.5443L3.03527 6.43571L3.17667 6.5443L3.12225 6.36956L3.26287 6.26253H3.08891L3.03501 6.08701L2.98214 6.26253H2.80766L2.94855 6.36956L2.89386 6.5443ZM3.83006 6.5443L3.97147 6.43571L4.11287 6.5443L4.05818 6.36956L4.19881 6.26253H4.02381L3.97147 6.08701L3.91756 6.26253H3.74386L3.88475 6.36956L3.83006 6.5443ZM4.86261 6.5443L5.00376 6.43571L5.14516 6.5443L5.09048 6.36956L5.23136 6.26253H5.05766L5.00376 6.08701L4.94985 6.26253H4.77589L4.91678 6.36956L4.86261 6.5443ZM5.88709 6.5443L6.02876 6.43571L6.17042 6.5443L6.11496 6.36956L6.2561 6.26253H6.0824L6.0285 6.08701L5.97511 6.26253H5.80115L5.94204 6.36956L5.88709 6.5443ZM6.91704 6.5443L7.0574 6.43571L7.19881 6.5443L7.1436 6.36956L7.28475 6.26253H7.11131L7.05714 6.08701L7.00376 6.26253H6.8298L6.97068 6.36956L6.91704 6.5443ZM7.49699 6.08727L7.63839 5.97841L7.78006 6.08727L7.72511 5.91227L7.86574 5.80524H7.69308L7.63813 5.62946L7.58449 5.80524H7.40923L7.55167 5.91227L7.49699 6.08727ZM2.38188 9.74456L2.52355 9.63701L2.66496 9.74456L2.61027 9.57112L2.75089 9.46383L2.5772 9.46435L2.52303 9.28883L2.4699 9.46435L2.29568 9.46383L2.43657 9.57112L2.38188 9.74456ZM3.31808 9.74456L3.45949 9.63701L3.60115 9.74456L3.54621 9.57112L3.68683 9.46383L3.51339 9.46435L3.45923 9.28883L3.40584 9.46435L3.23214 9.46383L3.37277 9.57112L3.31808 9.74456ZM4.35063 9.74456L4.49204 9.63701L4.63371 9.74456L4.57876 9.57112L4.71938 9.46383L4.54464 9.46435L4.49178 9.28883L4.43813 9.46435L4.26443 9.46383L4.40532 9.57112L4.35063 9.74456ZM5.37563 9.74456L5.51704 9.63701L5.65845 9.74456L5.60454 9.57112L5.74438 9.46383L5.57042 9.46435L5.51678 9.28883L5.46313 9.46435L5.28943 9.46383L5.43006 9.57112L5.37563 9.74456ZM6.40402 9.74456L6.54568 9.63701L6.68735 9.74456L6.63318 9.57112L6.77303 9.46383L6.59933 9.46435L6.54542 9.28883L6.49204 9.46435L6.31808 9.46383L6.45871 9.57112L6.40402 9.74456ZM7.48318 9.74456L7.62459 9.63701L7.76626 9.74456L7.71131 9.57112L7.85219 9.46383L7.67746 9.46435L7.62433 9.28883L7.57068 9.46435L7.39621 9.46383L7.53787 9.57112L7.48318 9.74456ZM2.39568 7.00185L2.53735 6.893L2.67876 7.00185L2.62381 6.82685L2.7647 6.71982L2.59074 6.72034L2.53683 6.5443L2.48318 6.72034L2.30949 6.71982L2.45089 6.82685L2.39568 7.00185ZM3.33162 7.00185L3.47329 6.893L3.6147 7.00185L3.56001 6.82685L3.70063 6.71982L3.52693 6.72034L3.47303 6.5443L3.41938 6.72034L3.24516 6.71982L3.38657 6.82685L3.33162 7.00185ZM4.36417 7.00185L4.50558 6.893L4.64725 7.00185L4.5923 6.82685L4.73292 6.71982L4.56027 6.72034L4.50558 6.5443L4.45167 6.72034L4.27902 6.71982L4.41886 6.82685L4.36417 7.00185ZM5.38917 7.00185L5.53058 6.893L5.67225 7.00185L5.61756 6.82685L5.75818 6.71982L5.58371 6.72034L5.53058 6.5443L5.47693 6.72034L5.30298 6.71982L5.44412 6.82685L5.38917 7.00185ZM6.41782 7.00185L6.55949 6.893L6.70089 7.00185L6.64621 6.82685L6.78709 6.71982L6.61287 6.72034L6.55923 6.5443L6.50558 6.72034L6.33188 6.71982L6.47251 6.82685L6.41782 7.00185ZM2.89386 7.45914L3.03527 7.35055L3.17667 7.45914L3.12225 7.2844L3.26287 7.17685H3.08891L3.03501 7.00185L2.98214 7.17685H2.80766L2.94855 7.2844L2.89386 7.45914ZM3.83006 7.45914L3.97147 7.35055L4.11287 7.45914L4.05818 7.2844L4.19881 7.17685H4.02381L3.97147 7.00185L3.91756 7.17685H3.74386L3.88475 7.2844L3.83006 7.45914ZM4.86261 7.45914L5.00376 7.35055L5.14516 7.45914L5.09048 7.2844L5.23136 7.17685H5.05766L5.00376 7.00185L4.94985 7.17685H4.77589L4.91678 7.2844L4.86261 7.45914ZM5.88709 7.45914L6.02876 7.35055L6.17042 7.45914L6.11496 7.2844L6.2561 7.17685H6.0824L6.0285 7.00185L5.97511 7.17685H5.80115L5.94204 7.2844L5.88709 7.45914ZM6.91704 7.45914L7.0574 7.35055L7.19881 7.45914L7.1436 7.2844L7.28475 7.17685H7.11131L7.05714 7.00185L7.00376 7.17685H6.8298L6.97068 7.2844L6.91704 7.45914ZM7.49699 7.00185L7.63839 6.893L7.78006 7.00185L7.72511 6.82685L7.86574 6.71982L7.69308 6.72034L7.63813 6.5443L7.58449 6.72034L7.40923 6.71982L7.55167 6.82685L7.49699 7.00185ZM2.38188 7.91643L2.52355 7.80784L2.66496 7.91643L2.61001 7.74196L2.75089 7.63466L2.57693 7.63518L2.52303 7.45914L2.4699 7.63518L2.29568 7.63466L2.43657 7.74196L2.38188 7.91643ZM3.31808 7.91643L3.45949 7.80784L3.60115 7.91643L3.54621 7.74196L3.68683 7.63466L3.51339 7.63518L3.45923 7.45914L3.40584 7.63518L3.23214 7.63466L3.37251 7.74196L3.31808 7.91643ZM4.35063 7.91643L4.49204 7.80784L4.63345 7.91643L4.57876 7.74196L4.71938 7.63466L4.54464 7.63518L4.49178 7.45914L4.43813 7.63518L4.26443 7.63466L4.40532 7.74196L4.35063 7.91643ZM5.37563 7.91643L5.51678 7.80784L5.65845 7.91643L5.60454 7.74196L5.74438 7.63466L5.57042 7.63518L5.51678 7.45914L5.46313 7.63518L5.28943 7.63466L5.43006 7.74196L5.37563 7.91643ZM6.40402 7.91643L6.54568 7.80784L6.68709 7.91643L6.63318 7.74196L6.77303 7.63466L6.59907 7.63518L6.54542 7.45914L6.49204 7.63518L6.31808 7.63466L6.45871 7.74196L6.40402 7.91643ZM2.88006 8.37373L3.02147 8.26539L3.16287 8.37373L3.10845 8.20029L3.24881 8.09248H3.07485L3.02121 7.91643L2.96782 8.09248H2.79386L2.93475 8.20029L2.88006 8.37373ZM3.81626 8.37373L3.95766 8.26539L4.09907 8.37373L4.04438 8.20029L4.18501 8.09248H4.01079L3.9574 7.91643L3.90376 8.09248H3.7298L3.87095 8.20029L3.81626 8.37373ZM4.84907 8.37373L4.98996 8.26539L5.13162 8.37373L5.07589 8.20029L5.21756 8.09248H5.04386L4.98996 7.91643L4.93631 8.09248H4.76235L4.90324 8.20029L4.84907 8.37373ZM5.87277 8.37373L6.01496 8.26539L6.15662 8.37373L6.10193 8.20029L6.2423 8.09248H6.0686L6.0147 7.91643L5.96131 8.09248H5.78735L5.92824 8.20029L5.87277 8.37373ZM6.90141 8.37373L7.0436 8.26539L7.18527 8.37373L7.13032 8.20029L7.27147 8.09248H7.09777L7.0436 7.91643L6.98996 8.09248H6.816L6.95688 8.20029L6.90141 8.37373ZM7.48318 7.91643L7.62459 7.80784L7.766 7.91643L7.71131 7.74196L7.85219 7.63466L7.67746 7.63518L7.62433 7.45914L7.57068 7.63518L7.39621 7.63466L7.53787 7.74196L7.48318 7.91643ZM2.38188 8.83128L2.52355 8.72373L2.66496 8.83128L2.61001 8.65654L2.75089 8.54925L2.57693 8.54977L2.52303 8.37373L2.4699 8.54977L2.29568 8.54925L2.43657 8.65654L2.38188 8.83128ZM3.31808 8.83128L3.45949 8.72373L3.60115 8.83128L3.54621 8.65654L3.68683 8.54925L3.51339 8.54977L3.45923 8.37373L3.40584 8.54977L3.23214 8.54925L3.37251 8.65654L3.31808 8.83128ZM4.35063 8.83128L4.49204 8.72373L4.63345 8.83128L4.57876 8.65654L4.71938 8.54925L4.54464 8.54977L4.49178 8.37373L4.43813 8.54977L4.26443 8.54925L4.40532 8.65654L4.35063 8.83128ZM5.37563 8.83128L5.51678 8.72373L5.65845 8.83128L5.60454 8.65654L5.74438 8.54925L5.57042 8.54977L5.51678 8.37373L5.46313 8.54977L5.28943 8.54925L5.43006 8.65654L5.37563 8.83128ZM6.40402 8.83128L6.54568 8.72373L6.68709 8.83128L6.63318 8.65654L6.77303 8.54925L6.59907 8.54977L6.54542 8.37373L6.49204 8.54977L6.31808 8.54925L6.45871 8.65654L6.40402 8.83128ZM2.88006 9.28883L3.02147 9.17998L3.16287 9.28883L3.10845 9.11383L3.24881 9.00758H3.07485L3.02121 8.83128L2.96782 9.00758H2.79386L2.93475 9.11383L2.88006 9.28883ZM3.81626 9.28883L3.95766 9.17998L4.09907 9.28883L4.04438 9.11383L4.18501 9.00758H4.01079L3.9574 8.83128L3.90376 9.00758H3.7298L3.87095 9.11383L3.81626 9.28883ZM4.84907 9.28883L4.98996 9.17998L5.13162 9.28883L5.07589 9.11383L5.21756 9.00758H5.04386L4.98996 8.83128L4.93631 9.00758H4.76235L4.90324 9.11383L4.84907 9.28883ZM5.87277 9.28883L6.01496 9.17998L6.15662 9.28883L6.10193 9.11383L6.2423 9.00758H6.0686L6.0147 8.83128L5.96131 9.00758H5.78735L5.92824 9.11383L5.87277 9.28883ZM6.90141 9.28883L7.0436 9.17998L7.18527 9.28883L7.13032 9.11383L7.27147 9.00758H7.09777L7.0436 8.83128L6.98996 9.00758H6.816L6.95688 9.11383L6.90141 9.28883ZM7.48318 8.83128L7.62459 8.72373L7.766 8.83128L7.71131 8.65654L7.85219 8.54925L7.67746 8.54977L7.62433 8.37373L7.57068 8.54977L7.39621 8.54925L7.53787 8.65654L7.48318 8.83128Z" fill="white"></path>
		</g>
		<defs>
			<clipPath id="clip0_142_161">
				<rect width="16.6667" height="16.6667" fill="white" transform="translate(1.66699 1.6665)"></rect>
			</clipPath>
		</defs>
	</symbol>
	<symbol xmlns="http://www.w3.org/2000/svg" viewBox="0 0 20 20" id="theme-toggle">
		<path d="M9.99999 18.3334C5.39749 18.3334 1.66666 14.6025 1.66666 10C1.66666 5.39752 5.39749 1.66669 9.99999 1.66669C14.6025 1.66669 18.3333 5.39752 18.3333 10C18.3333 14.6025 14.6025 18.3334 9.99999 18.3334ZM9.99999 16.6667C11.7681 16.6667 13.4638 15.9643 14.714 14.7141C15.9643 13.4638 16.6667 11.7681 16.6667 10C16.6667 8.23191 15.9643 6.53622 14.714 5.28598C13.4638 4.03573 11.7681 3.33335 9.99999 3.33335C8.23188 3.33335 6.53619 4.03573 5.28594 5.28598C4.0357 6.53622 3.33332 8.23191 3.33332 10C3.33332 11.7681 4.0357 13.4638 5.28594 14.7141C6.53619 15.9643 8.23188 16.6667 9.99999 16.6667ZM9.99999 15V5.00002C11.3261 5.00002 12.5978 5.5268 13.5355 6.46449C14.4732 7.40217 15 8.67394 15 10C15 11.3261 14.4732 12.5979 13.5355 13.5356C12.5978 14.4732 11.3261 15 9.99999 15Z" fill="currentColor"></path>
	</symbol>
	<symbol xmlns="http://www.w3.org/2000/svg" viewBox="0 0 20 20" id="headset">
		<path d="M16.615 6.66667H17.5C17.942 6.66667 18.366 6.84226 18.6785 7.15482C18.9911 7.46738 19.1667 7.8913 19.1667 8.33333V11.6667C19.1667 12.1087 18.9911 12.5326 18.6785 12.8452C18.366 13.1577 17.942 13.3333 17.5 13.3333H16.615C16.4118 14.9444 15.6277 16.426 14.4098 17.5C13.1919 18.574 11.6238 19.1666 10 19.1667V17.5C11.3261 17.5 12.5979 16.9732 13.5355 16.0355C14.4732 15.0979 15 13.8261 15 12.5V7.5C15 6.17392 14.4732 4.90215 13.5355 3.96446C12.5979 3.02678 11.3261 2.5 10 2.5C8.67392 2.5 7.40215 3.02678 6.46447 3.96446C5.52678 4.90215 5 6.17392 5 7.5V13.3333H2.5C2.05797 13.3333 1.63405 13.1577 1.32149 12.8452C1.00893 12.5326 0.833333 12.1087 0.833333 11.6667V8.33333C0.833333 7.8913 1.00893 7.46738 1.32149 7.15482C1.63405 6.84226 2.05797 6.66667 2.5 6.66667H3.385C3.58836 5.05574 4.37257 3.57439 5.59048 2.50056C6.80839 1.42673 8.37629 0.834229 10 0.834229C11.6237 0.834229 13.1916 1.42673 14.4095 2.50056C15.6274 3.57439 16.4116 5.05574 16.615 6.66667ZM2.5 8.33333V11.6667H3.33333V8.33333H2.5ZM16.6667 8.33333V11.6667H17.5V8.33333H16.6667ZM6.46667 13.1542L7.35 11.7408C8.14423 12.2384 9.06281 12.5015 10 12.5C10.9372 12.5015 11.8558 12.2384 12.65 11.7408L13.5333 13.1542C12.4744 13.8176 11.2496 14.1686 10 14.1667C8.75038 14.1686 7.52562 13.8176 6.46667 13.1542Z" fill="currentColor"></path>
	</symbol>
	<symbol fill="none" xmlns="http://www.w3.org/2000/svg" viewBox="0 0 177 128" id="alert">
		<g opacity="0.6" clip-path="url(#clip0_2_810)">
			<path d="M92.3175 88.1674L91.4175 91.5265M107.618 31.0638L98.6179 64.6542L107.618 31.0638Z" stroke="#EF8566" stroke-width="13.9101" stroke-linecap="round"></path>
			<path d="M23.9666 80.7688L107.241 -11.8653C114.556 -20.0073 127.166 -16.6285 129.424 -5.92136L155.218 115.937C157.373 126.192 148.334 135.579 138.741 133.009L29.6866 103.787C20.0999 101.219 16.9588 88.5684 23.9733 80.7706L23.9666 80.7688Z" stroke="#EF8566" stroke-width="13.9101" stroke-linecap="round" stroke-linejoin="round"></path>
		</g>
		<defs>
			<clipPath id="clip0_2_810">
				<rect width="166.921" height="166.921" fill="white" transform="translate(43.2025 -51) rotate(15)"></rect>
			</clipPath>
		</defs>
	</symbol>
	<symbol xmlns="http://www.w3.org/2000/svg" viewBox="0 0 20 20" id="graph">
		<path d="M4.16667 2.5V15.8333H17.5V17.5H2.5V2.5H4.16667ZM16.9108 5.24417L18.0892 6.4225L13.3333 11.1783L10.8333 8.67917L7.25583 12.2558L6.0775 11.0775L10.8333 6.32167L13.3333 8.82083L16.9108 5.24417Z" fill="#8F92A5"></path>
	</symbol>
	<symbol xmlns="http://www.w3.org/2000/svg" viewBox="0 0 20 20" id="arrow">
		<path d="M9.99999 10.9767L14.125 6.85165L15.3033 8.02999L9.99999 13.3333L4.69666 8.02999L5.87499 6.85165L9.99999 10.9767Z" fill="currentColor"></path>
	</symbol>
</svg>