<svg width="20" height="20" viewBox="0 0 20 20" fill="none" xmlns="http://www.w3.org/2000/svg">
<path d="M16.667 14.1665H18.3337V15.8332H1.66699V14.1665H3.33366V8.33317C3.33366 6.56506 4.03604 4.86937 5.28628 3.61913C6.53652 2.36888 8.23222 1.6665 10.0003 1.6665C11.7684 1.6665 13.4641 2.36888 14.7144 3.61913C15.9646 4.86937 16.667 6.56506 16.667 8.33317V14.1665ZM15.0003 14.1665V8.33317C15.0003 7.00709 14.4735 5.73532 13.5359 4.79764C12.5982 3.85995 11.3264 3.33317 10.0003 3.33317C8.67424 3.33317 7.40247 3.85995 6.46479 4.79764C5.52711 5.73532 5.00033 7.00709 5.00033 8.33317V14.1665H15.0003ZM7.50033 17.4998H12.5003V19.1665H7.50033V17.4998Z" fill="#16113D"/>
</svg>
