<svg width="20" height="20" viewBox="0 0 20 20" fill="none" xmlns="http://www.w3.org/2000/svg">
<path d="M0.833329 12.0834C0.832816 11.1629 1.06701 10.2575 1.51379 9.45278C1.96056 8.64803 2.60516 7.97049 3.38666 7.48419C3.59292 5.87593 4.37816 4.39795 5.59543 3.32683C6.81269 2.2557 8.37856 1.66486 10 1.66486C11.6214 1.66486 13.1873 2.2557 14.4046 3.32683C15.6218 4.39795 16.4071 5.87593 16.6133 7.48419C17.5827 8.08727 18.3367 8.9812 18.7677 10.0383C19.1988 11.0955 19.2848 12.2618 19.0134 13.3707C18.7421 14.4797 18.1274 15.4745 17.2569 16.2132C16.3865 16.952 15.305 17.3968 14.1667 17.4842L5.83333 17.5C3.03666 17.2717 0.833329 14.935 0.833329 12.0834ZM14.04 15.8225C14.8282 15.7619 15.5771 15.4538 16.1797 14.9421C16.7823 14.4305 17.2078 13.7415 17.3954 12.9736C17.583 12.2056 17.5231 11.3981 17.2243 10.6662C16.9256 9.9343 16.4031 9.31557 15.7317 8.89836L15.0592 8.47919L14.9592 7.69419C14.8034 6.48893 14.2141 5.38164 13.3013 4.57927C12.3886 3.77689 11.2149 3.33435 9.99958 3.33435C8.7843 3.33435 7.6106 3.77689 6.69785 4.57927C5.7851 5.38164 5.19577 6.48893 5.04 7.69419L4.94 8.47919L4.26916 8.89836C3.59774 9.31552 3.07531 9.93419 2.77649 10.666C2.47767 11.3978 2.41774 12.2053 2.60525 12.9732C2.79277 13.7411 3.21814 14.4301 3.82062 14.9418C4.4231 15.4535 5.17187 15.7618 5.96 15.8225L6.10416 15.8334H13.8958L14.04 15.8225ZM10.8333 10H13.3333L10 14.1667L6.66666 10H9.16666V6.66669H10.8333V10Z" fill="#16113D"/>
</svg>
