<svg width="18" height="15" viewBox="0 0 18 15" fill="none" xmlns="http://www.w3.org/2000/svg">
<g clip-path="url(#clip0_128_305)">
<path d="M13.7247 5.4H9.44966V6.975C9.44966 8.09156 8.54123 9 7.42466 9C6.3081 9 5.39966 8.09156 5.39966 6.975V3.555L3.57435 4.65188C3.03154 4.97531 2.69966 5.56313 2.69966 6.19313V7.52344L0.449665 8.82281C0.0193524 9.07031 -0.12971 9.62156 0.120602 10.0519L2.3706 13.95C2.6181 14.3803 3.16935 14.5266 3.59966 14.2791L6.50779 12.6H10.3497C11.3425 12.6 12.1497 11.7928 12.1497 10.8H12.5997C13.0975 10.8 13.4997 10.3978 13.4997 9.9V8.1H13.7247C14.0987 8.1 14.3997 7.79906 14.3997 7.425V6.075C14.3997 5.70094 14.0987 5.4 13.7247 5.4ZM17.8787 4.34813L15.6287 0.450002C15.3812 0.0196894 14.83 -0.126561 14.3997 0.120939L11.4915 1.8H8.61716C8.27966 1.8 7.9506 1.89563 7.66373 2.07281L6.72154 2.66063C6.45716 2.82375 6.29966 3.11344 6.29966 3.42281V6.975C6.29966 7.59656 6.8031 8.1 7.42466 8.1C8.04623 8.1 8.54966 7.59656 8.54966 6.975V4.5H13.7247C14.5937 4.5 15.2997 5.20594 15.2997 6.075V6.87656L17.5497 5.57719C17.98 5.32688 18.1262 4.77844 17.8787 4.34813Z" fill="#16113D"/>
</g>
<defs>
<clipPath id="clip0_128_305">
<rect width="18" height="14.4" fill="white"/>
</clipPath>
</defs>
</svg>
