<svg width="20" height="20" viewBox="0 0 20 20" fill="none" xmlns="http://www.w3.org/2000/svg">
<path d="M4.16665 7.49999C4.38766 7.49999 4.59962 7.58779 4.7559 7.74407C4.91218 7.90035 4.99998 8.11231 4.99998 8.33332C6.30926 8.33139 7.5808 8.77188 8.60831 9.58332H10.4166C11.5275 9.58332 12.525 10.0667 13.2116 10.8333H15.8333C16.621 10.8331 17.3927 11.0562 18.0588 11.4767C18.7248 11.8972 19.2581 12.4979 19.5966 13.2092C17.6258 15.81 14.435 17.5 10.8333 17.5C8.50831 17.5 6.54165 16.9975 4.94998 16.1183C4.89168 16.2792 4.78518 16.4182 4.64499 16.5163C4.50481 16.6144 4.33776 16.6669 4.16665 16.6667H1.66665C1.44563 16.6667 1.23367 16.5789 1.07739 16.4226C0.92111 16.2663 0.833313 16.0543 0.833313 15.8333V8.33332C0.833313 8.11231 0.92111 7.90035 1.07739 7.74407C1.23367 7.58779 1.44563 7.49999 1.66665 7.49999H4.16665ZM5.00081 9.99999L4.99998 14.185L5.03748 14.2117C6.53331 15.2617 8.48165 15.8333 10.8333 15.8333C13.3366 15.8333 15.6658 14.87 17.3625 13.225L17.4733 13.1142L17.3733 13.0308C16.9798 12.7226 16.5028 12.5397 16.0041 12.5058L15.8333 12.5H14.0741C14.1341 12.7683 14.1666 13.0467 14.1666 13.3333V14.1667H6.66665V12.5L12.325 12.4992L12.2966 12.4342C12.1369 12.1004 11.8913 11.8152 11.5849 11.6079C11.2785 11.4005 10.9225 11.2784 10.5533 11.2542L10.4166 11.25H7.97498C7.58774 10.8539 7.12521 10.5393 6.61458 10.3246C6.10396 10.11 5.55556 9.99959 5.00165 9.99999H5.00081ZM3.33331 9.16666H2.49998V15H3.33331V9.16666ZM15 4.16666C15.663 4.16666 16.2989 4.43005 16.7677 4.89889C17.2366 5.36773 17.5 6.00362 17.5 6.66666C17.5 7.3297 17.2366 7.96558 16.7677 8.43442C16.2989 8.90326 15.663 9.16666 15 9.16666C14.3369 9.16666 13.7011 8.90326 13.2322 8.43442C12.7634 7.96558 12.5 7.3297 12.5 6.66666C12.5 6.00362 12.7634 5.36773 13.2322 4.89889C13.7011 4.43005 14.3369 4.16666 15 4.16666ZM15 5.83332C14.779 5.83332 14.567 5.92112 14.4107 6.0774C14.2544 6.23368 14.1666 6.44564 14.1666 6.66666C14.1666 6.88767 14.2544 7.09963 14.4107 7.25591C14.567 7.41219 14.779 7.49999 15 7.49999C15.221 7.49999 15.433 7.41219 15.5892 7.25591C15.7455 7.09963 15.8333 6.88767 15.8333 6.66666C15.8333 6.44564 15.7455 6.23368 15.5892 6.0774C15.433 5.92112 15.221 5.83332 15 5.83332ZM9.16665 1.66666C9.82969 1.66666 10.4656 1.93005 10.9344 2.39889C11.4033 2.86773 11.6666 3.50362 11.6666 4.16666C11.6666 4.8297 11.4033 5.46558 10.9344 5.93442C10.4656 6.40326 9.82969 6.66666 9.16665 6.66666C8.50361 6.66666 7.86772 6.40326 7.39888 5.93442C6.93004 5.46558 6.66665 4.8297 6.66665 4.16666C6.66665 3.50362 6.93004 2.86773 7.39888 2.39889C7.86772 1.93005 8.50361 1.66666 9.16665 1.66666ZM9.16665 3.33332C8.94563 3.33332 8.73367 3.42112 8.57739 3.5774C8.42111 3.73368 8.33331 3.94564 8.33331 4.16666C8.33331 4.38767 8.42111 4.59963 8.57739 4.75591C8.73367 4.91219 8.94563 4.99999 9.16665 4.99999C9.38766 4.99999 9.59962 4.91219 9.7559 4.75591C9.91218 4.59963 9.99998 4.38767 9.99998 4.16666C9.99998 3.94564 9.91218 3.73368 9.7559 3.5774C9.59962 3.42112 9.38766 3.33332 9.16665 3.33332Z" fill="#16113D"/>
</svg>
