<svg width="0" height="0" class="hidden">
	<symbol xmlns="http://www.w3.org/2000/svg" viewBox="0 0 20 20" id="arrows">
		<path d="M10 18.3333C5.39752 18.3333 1.66669 14.6025 1.66669 9.99999C1.66669 5.39749 5.39752 1.66666 10 1.66666C14.6025 1.66666 18.3334 5.39749 18.3334 9.99999C18.3334 14.6025 14.6025 18.3333 10 18.3333ZM10 16.6667C11.7681 16.6667 13.4638 15.9643 14.7141 14.714C15.9643 13.4638 16.6667 11.7681 16.6667 9.99999C16.6667 8.23188 15.9643 6.53619 14.7141 5.28594C13.4638 4.0357 11.7681 3.33332 10 3.33332C8.23191 3.33332 6.53622 4.0357 5.28598 5.28594C4.03573 6.53619 3.33335 8.23188 3.33335 9.99999C3.33335 11.7681 4.03573 13.4638 5.28598 14.714C6.53622 15.9643 8.23191 16.6667 10 16.6667ZM5.83335 10.8333H13.3334V12.5H10V15L5.83335 10.8333ZM10 7.49999V4.99999L14.1667 9.16666H6.66669V7.49999H10Z" fill="currentColor"></path>
	</symbol>
	<symbol xmlns="http://www.w3.org/2000/svg" viewBox="0 0 20 20" id="hand-with-coins">
		<path d="M4.16665 7.49999C4.38766 7.49999 4.59962 7.58779 4.7559 7.74407C4.91218 7.90035 4.99998 8.11231 4.99998 8.33332C6.30926 8.33139 7.5808 8.77188 8.60831 9.58332H10.4166C11.5275 9.58332 12.525 10.0667 13.2116 10.8333H15.8333C16.621 10.8331 17.3927 11.0562 18.0588 11.4767C18.7248 11.8972 19.2581 12.4979 19.5966 13.2092C17.6258 15.81 14.435 17.5 10.8333 17.5C8.50831 17.5 6.54165 16.9975 4.94998 16.1183C4.89168 16.2792 4.78518 16.4182 4.64499 16.5163C4.50481 16.6144 4.33776 16.6669 4.16665 16.6667H1.66665C1.44563 16.6667 1.23367 16.5789 1.07739 16.4226C0.92111 16.2663 0.833313 16.0543 0.833313 15.8333V8.33332C0.833313 8.11231 0.92111 7.90035 1.07739 7.74407C1.23367 7.58779 1.44563 7.49999 1.66665 7.49999H4.16665ZM5.00081 9.99999L4.99998 14.185L5.03748 14.2117C6.53331 15.2617 8.48165 15.8333 10.8333 15.8333C13.3366 15.8333 15.6658 14.87 17.3625 13.225L17.4733 13.1142L17.3733 13.0308C16.9798 12.7226 16.5028 12.5397 16.0041 12.5058L15.8333 12.5H14.0741C14.1341 12.7683 14.1666 13.0467 14.1666 13.3333V14.1667H6.66665V12.5L12.325 12.4992L12.2966 12.4342C12.1369 12.1004 11.8913 11.8152 11.5849 11.6079C11.2785 11.4005 10.9225 11.2784 10.5533 11.2542L10.4166 11.25H7.97498C7.58774 10.8539 7.12521 10.5393 6.61458 10.3246C6.10396 10.11 5.55556 9.99959 5.00165 9.99999H5.00081ZM3.33331 9.16666H2.49998V15H3.33331V9.16666ZM15 4.16666C15.663 4.16666 16.2989 4.43005 16.7677 4.89889C17.2366 5.36773 17.5 6.00362 17.5 6.66666C17.5 7.3297 17.2366 7.96558 16.7677 8.43442C16.2989 8.90326 15.663 9.16666 15 9.16666C14.3369 9.16666 13.7011 8.90326 13.2322 8.43442C12.7634 7.96558 12.5 7.3297 12.5 6.66666C12.5 6.00362 12.7634 5.36773 13.2322 4.89889C13.7011 4.43005 14.3369 4.16666 15 4.16666ZM15 5.83332C14.779 5.83332 14.567 5.92112 14.4107 6.0774C14.2544 6.23368 14.1666 6.44564 14.1666 6.66666C14.1666 6.88767 14.2544 7.09963 14.4107 7.25591C14.567 7.41219 14.779 7.49999 15 7.49999C15.221 7.49999 15.433 7.41219 15.5892 7.25591C15.7455 7.09963 15.8333 6.88767 15.8333 6.66666C15.8333 6.44564 15.7455 6.23368 15.5892 6.0774C15.433 5.92112 15.221 5.83332 15 5.83332ZM9.16665 1.66666C9.82969 1.66666 10.4656 1.93005 10.9344 2.39889C11.4033 2.86773 11.6666 3.50362 11.6666 4.16666C11.6666 4.8297 11.4033 5.46558 10.9344 5.93442C10.4656 6.40326 9.82969 6.66666 9.16665 6.66666C8.50361 6.66666 7.86772 6.40326 7.39888 5.93442C6.93004 5.46558 6.66665 4.8297 6.66665 4.16666C6.66665 3.50362 6.93004 2.86773 7.39888 2.39889C7.86772 1.93005 8.50361 1.66666 9.16665 1.66666ZM9.16665 3.33332C8.94563 3.33332 8.73367 3.42112 8.57739 3.5774C8.42111 3.73368 8.33331 3.94564 8.33331 4.16666C8.33331 4.38767 8.42111 4.59963 8.57739 4.75591C8.73367 4.91219 8.94563 4.99999 9.16665 4.99999C9.38766 4.99999 9.59962 4.91219 9.7559 4.75591C9.91218 4.59963 9.99998 4.38767 9.99998 4.16666C9.99998 3.94564 9.91218 3.73368 9.7559 3.5774C9.59962 3.42112 9.38766 3.33332 9.16665 3.33332Z" fill="currentColor"></path>
	</symbol>
	<symbol xmlns="http://www.w3.org/2000/svg" viewBox="0 0 20 20" id="rating">
		<path d="M1.66669 10.8333H6.66669V17.5H1.66669V10.8333ZM13.3334 6.66667H18.3334V17.5H13.3334V6.66667ZM7.50002 2.5H12.5V17.5H7.50002V2.5ZM3.33335 12.5V15.8333H5.00002V12.5H3.33335ZM9.16669 4.16667V15.8333H10.8334V4.16667H9.16669ZM15 8.33333V15.8333H16.6667V8.33333H15Z" fill="currentColor"></path>
	</symbol>
	<symbol xmlns="http://www.w3.org/2000/svg" viewBox="0 0 18 15" id="handshake">
		<g clip-path="url(#clip0_128_305)">
			<path d="M13.7247 5.4H9.44966V6.975C9.44966 8.09156 8.54123 9 7.42466 9C6.3081 9 5.39966 8.09156 5.39966 6.975V3.555L3.57435 4.65188C3.03154 4.97531 2.69966 5.56313 2.69966 6.19313V7.52344L0.449665 8.82281C0.0193524 9.07031 -0.12971 9.62156 0.120602 10.0519L2.3706 13.95C2.6181 14.3803 3.16935 14.5266 3.59966 14.2791L6.50779 12.6H10.3497C11.3425 12.6 12.1497 11.7928 12.1497 10.8H12.5997C13.0975 10.8 13.4997 10.3978 13.4997 9.9V8.1H13.7247C14.0987 8.1 14.3997 7.79906 14.3997 7.425V6.075C14.3997 5.70094 14.0987 5.4 13.7247 5.4ZM17.8787 4.34813L15.6287 0.450002C15.3812 0.0196894 14.83 -0.126561 14.3997 0.120939L11.4915 1.8H8.61716C8.27966 1.8 7.9506 1.89563 7.66373 2.07281L6.72154 2.66063C6.45716 2.82375 6.29966 3.11344 6.29966 3.42281V6.975C6.29966 7.59656 6.8031 8.1 7.42466 8.1C8.04623 8.1 8.54966 7.59656 8.54966 6.975V4.5H13.7247C14.5937 4.5 15.2997 5.20594 15.2997 6.075V6.87656L17.5497 5.57719C17.98 5.32688 18.1262 4.77844 17.8787 4.34813Z" fill="currentColor"></path>
		</g>
		<defs>
			<clipPath id="clip0_128_305">
				<rect width="18" height="14.4" fill="white"></rect>
			</clipPath>
		</defs>
	</symbol>
	<symbol xmlns="http://www.w3.org/2000/svg" viewBox="0 0 20 20" id="dashboard">
		<path d="M10.8333 17.5V9.16667H17.5V17.5H10.8333ZM2.5 10.8333V2.5H9.16667V10.8333H2.5ZM7.5 9.16667V4.16667H4.16667V9.16667H7.5ZM2.5 17.5V12.5H9.16667V17.5H2.5ZM4.16667 15.8333H7.5V14.1667H4.16667V15.8333ZM12.5 15.8333H15.8333V10.8333H12.5V15.8333ZM10.8333 2.5H17.5V7.5H10.8333V2.5ZM12.5 4.16667V5.83333H15.8333V4.16667H12.5Z" fill="currentColor"></path>
	</symbol>
	<symbol xmlns="http://www.w3.org/2000/svg" viewBox="0 0 20 20" id="add-user">
		<path d="M11.6666 11.8766V13.6183C10.9124 13.3517 10.1052 13.2699 9.31282 13.3798C8.52042 13.4897 7.76598 13.7882 7.11284 14.2502C6.4597 14.7121 5.92693 15.324 5.55928 16.0345C5.19163 16.745 4.99983 17.5333 4.99998 18.3333L3.33331 18.3325C3.33305 17.3149 3.56575 16.3107 4.01356 15.397C4.46138 14.4832 5.11243 13.6841 5.91683 13.0608C6.72123 12.4376 7.65763 12.0068 8.65427 11.8014C9.65092 11.5959 10.6814 11.6214 11.6666 11.8758V11.8766ZM9.99998 10.8333C7.23748 10.8333 4.99998 8.59581 4.99998 5.83331C4.99998 3.07081 7.23748 0.833313 9.99998 0.833313C12.7625 0.833313 15 3.07081 15 5.83331C15 8.59581 12.7625 10.8333 9.99998 10.8333ZM9.99998 9.16665C11.8416 9.16665 13.3333 7.67498 13.3333 5.83331C13.3333 3.99165 11.8416 2.49998 9.99998 2.49998C8.15831 2.49998 6.66665 3.99165 6.66665 5.83331C6.66665 7.67498 8.15831 9.16665 9.99998 9.16665ZM15 14.1666V11.6666H16.6666V14.1666H19.1666V15.8333H16.6666V18.3333H15V15.8333H12.5V14.1666H15Z" fill="currentColor"></path>
	</symbol>
</svg>