<svg width="20" height="20" viewBox="0 0 20 20" fill="none" xmlns="http://www.w3.org/2000/svg">
<path d="M9.99999 18.3334C5.39749 18.3334 1.66666 14.6025 1.66666 10C1.66666 5.39752 5.39749 1.66669 9.99999 1.66669C14.6025 1.66669 18.3333 5.39752 18.3333 10C18.3333 14.6025 14.6025 18.3334 9.99999 18.3334ZM9.99999 16.6667C11.7681 16.6667 13.4638 15.9643 14.714 14.7141C15.9643 13.4638 16.6667 11.7681 16.6667 10C16.6667 8.23191 15.9643 6.53622 14.714 5.28598C13.4638 4.03573 11.7681 3.33335 9.99999 3.33335C8.23188 3.33335 6.53619 4.03573 5.28594 5.28598C4.0357 6.53622 3.33332 8.23191 3.33332 10C3.33332 11.7681 4.0357 13.4638 5.28594 14.7141C6.53619 15.9643 8.23188 16.6667 9.99999 16.6667ZM9.99999 15V5.00002C11.3261 5.00002 12.5978 5.5268 13.5355 6.46449C14.4732 7.40217 15 8.67394 15 10C15 11.3261 14.4732 12.5979 13.5355 13.5356C12.5978 14.4732 11.3261 15 9.99999 15Z" fill="#16113D"/>
</svg>
