<svg width="20" height="20" viewBox="0 0 20 20" fill="none" xmlns="http://www.w3.org/2000/svg">
<g clip-path="url(#clip0_142_161)">
<path d="M8.4375 6.2915V7.17171H18.3242C18.3104 6.88786 18.2807 6.529 18.1745 6.2915" fill="#EC1C24"/>
<path d="M17.7083 5.41113H8.4375V6.29134H18.1745C18.0687 5.96296 17.9115 5.66348 17.7083 5.41113Z" fill="#E6E7E8"/>
<path d="M15.7292 4.53125H8.4375V5.41146H17.7083C17.2737 4.86719 16.5583 4.53125 15.7292 4.53125Z" fill="#EC1C24"/>
<path d="M18.3242 7.17139H8.4375V8.0516H18.3333V7.46488C18.3333 7.41253 18.3299 7.36149 18.3284 7.31019C18.3273 7.29613 18.3258 7.25993 18.3242 7.17139Z" fill="#E6E7E8"/>
<path d="M8.4375 8.93197H18.3333V8.05176H8.4375V8.93197Z" fill="#EC1C24"/>
<path d="M8.4375 9.81234H18.3333V8.93213H8.4375V9.81234Z" fill="#E6E7E8"/>
<path d="M8.4375 9.81201H18.3333V10.6922H8.4375V9.81201Z" fill="#EC1C24"/>
<path d="M1.66702 10.6925V11.5727H18.3337V10.6925H8.43786H1.66702Z" fill="#E6E7E8"/>
<path d="M1.66702 11.5726H18.3337V12.4528H1.66702V11.5726Z" fill="#EC1C24"/>
<path d="M1.66832 12.9942C1.66832 12.9942 1.66598 13.2074 1.67223 13.333H18.3285C18.3358 13.2043 18.3324 12.9942 18.3324 12.9942L18.3337 12.4528H1.66702L1.66832 12.9942Z" fill="#E6E7E8"/>
<path d="M4.27083 15.9891H15.7292C16.5607 15.9891 17.2518 15.687 17.724 15.0933H2.27344C2.76094 15.7 3.4651 15.9891 4.26953 15.9891" fill="#EC1C24"/>
<path d="M2.27474 15.0936H17.7253C17.9312 14.8319 18.0851 14.5331 18.1784 14.2134H1.82422C1.9193 14.5321 2.07248 14.8305 2.27604 15.0936" fill="#E6E7E8"/>
<path d="M1.82292 14.2132H18.1771C18.2624 13.9269 18.3131 13.6314 18.3281 13.333H1.67188C1.69766 13.634 1.72161 13.8614 1.82292 14.2132Z" fill="#EC1C24"/>
<path d="M8.43783 4.53125H4.27116C2.54538 4.53125 1.66699 5.8138 1.66699 7.39583V10.6927H8.43783V4.53125Z" fill="#176496"/>
<path d="M2.39568 6.08727L2.53735 5.97841L2.67876 6.08727L2.62381 5.91227L2.7647 5.80524H2.59074L2.53683 5.62946L2.48318 5.80524H2.30949L2.45089 5.91227L2.39568 6.08727ZM3.33162 6.08727L3.47329 5.97841L3.6147 6.08727L3.56001 5.91227L3.70063 5.80524H3.52693L3.47303 5.62946L3.41938 5.80524H3.24516L3.38657 5.91227L3.33162 6.08727ZM4.36417 6.08727L4.50558 5.97841L4.64725 6.08727L4.5923 5.91227L4.73292 5.80524H4.56027L4.50558 5.62946L4.45167 5.80524H4.27902L4.41886 5.91227L4.36417 6.08727ZM5.38917 6.08727L5.53058 5.97841L5.67225 6.08727L5.61756 5.91227L5.75818 5.80524H5.58371L5.53058 5.62946L5.47693 5.80524H5.30298L5.44412 5.91227L5.38917 6.08727ZM6.41782 6.08727L6.55949 5.97841L6.70089 6.08727L6.64621 5.91227L6.78709 5.80524H6.61287L6.55923 5.62946L6.50558 5.80524H6.33188L6.47251 5.91227L6.41782 6.08727ZM2.89386 6.5443L3.03527 6.43571L3.17667 6.5443L3.12225 6.36956L3.26287 6.26253H3.08891L3.03501 6.08701L2.98214 6.26253H2.80766L2.94855 6.36956L2.89386 6.5443ZM3.83006 6.5443L3.97147 6.43571L4.11287 6.5443L4.05818 6.36956L4.19881 6.26253H4.02381L3.97147 6.08701L3.91756 6.26253H3.74386L3.88475 6.36956L3.83006 6.5443ZM4.86261 6.5443L5.00376 6.43571L5.14516 6.5443L5.09048 6.36956L5.23136 6.26253H5.05766L5.00376 6.08701L4.94985 6.26253H4.77589L4.91678 6.36956L4.86261 6.5443ZM5.88709 6.5443L6.02876 6.43571L6.17042 6.5443L6.11496 6.36956L6.2561 6.26253H6.0824L6.0285 6.08701L5.97511 6.26253H5.80115L5.94204 6.36956L5.88709 6.5443ZM6.91704 6.5443L7.0574 6.43571L7.19881 6.5443L7.1436 6.36956L7.28475 6.26253H7.11131L7.05714 6.08701L7.00376 6.26253H6.8298L6.97068 6.36956L6.91704 6.5443ZM7.49699 6.08727L7.63839 5.97841L7.78006 6.08727L7.72511 5.91227L7.86574 5.80524H7.69308L7.63813 5.62946L7.58449 5.80524H7.40923L7.55167 5.91227L7.49699 6.08727ZM2.38188 9.74456L2.52355 9.63701L2.66496 9.74456L2.61027 9.57112L2.75089 9.46383L2.5772 9.46435L2.52303 9.28883L2.4699 9.46435L2.29568 9.46383L2.43657 9.57112L2.38188 9.74456ZM3.31808 9.74456L3.45949 9.63701L3.60115 9.74456L3.54621 9.57112L3.68683 9.46383L3.51339 9.46435L3.45923 9.28883L3.40584 9.46435L3.23214 9.46383L3.37277 9.57112L3.31808 9.74456ZM4.35063 9.74456L4.49204 9.63701L4.63371 9.74456L4.57876 9.57112L4.71938 9.46383L4.54464 9.46435L4.49178 9.28883L4.43813 9.46435L4.26443 9.46383L4.40532 9.57112L4.35063 9.74456ZM5.37563 9.74456L5.51704 9.63701L5.65845 9.74456L5.60454 9.57112L5.74438 9.46383L5.57042 9.46435L5.51678 9.28883L5.46313 9.46435L5.28943 9.46383L5.43006 9.57112L5.37563 9.74456ZM6.40402 9.74456L6.54568 9.63701L6.68735 9.74456L6.63318 9.57112L6.77303 9.46383L6.59933 9.46435L6.54542 9.28883L6.49204 9.46435L6.31808 9.46383L6.45871 9.57112L6.40402 9.74456ZM7.48318 9.74456L7.62459 9.63701L7.76626 9.74456L7.71131 9.57112L7.85219 9.46383L7.67746 9.46435L7.62433 9.28883L7.57068 9.46435L7.39621 9.46383L7.53787 9.57112L7.48318 9.74456ZM2.39568 7.00185L2.53735 6.893L2.67876 7.00185L2.62381 6.82685L2.7647 6.71982L2.59074 6.72034L2.53683 6.5443L2.48318 6.72034L2.30949 6.71982L2.45089 6.82685L2.39568 7.00185ZM3.33162 7.00185L3.47329 6.893L3.6147 7.00185L3.56001 6.82685L3.70063 6.71982L3.52693 6.72034L3.47303 6.5443L3.41938 6.72034L3.24516 6.71982L3.38657 6.82685L3.33162 7.00185ZM4.36417 7.00185L4.50558 6.893L4.64725 7.00185L4.5923 6.82685L4.73292 6.71982L4.56027 6.72034L4.50558 6.5443L4.45167 6.72034L4.27902 6.71982L4.41886 6.82685L4.36417 7.00185ZM5.38917 7.00185L5.53058 6.893L5.67225 7.00185L5.61756 6.82685L5.75818 6.71982L5.58371 6.72034L5.53058 6.5443L5.47693 6.72034L5.30298 6.71982L5.44412 6.82685L5.38917 7.00185ZM6.41782 7.00185L6.55949 6.893L6.70089 7.00185L6.64621 6.82685L6.78709 6.71982L6.61287 6.72034L6.55923 6.5443L6.50558 6.72034L6.33188 6.71982L6.47251 6.82685L6.41782 7.00185ZM2.89386 7.45914L3.03527 7.35055L3.17667 7.45914L3.12225 7.2844L3.26287 7.17685H3.08891L3.03501 7.00185L2.98214 7.17685H2.80766L2.94855 7.2844L2.89386 7.45914ZM3.83006 7.45914L3.97147 7.35055L4.11287 7.45914L4.05818 7.2844L4.19881 7.17685H4.02381L3.97147 7.00185L3.91756 7.17685H3.74386L3.88475 7.2844L3.83006 7.45914ZM4.86261 7.45914L5.00376 7.35055L5.14516 7.45914L5.09048 7.2844L5.23136 7.17685H5.05766L5.00376 7.00185L4.94985 7.17685H4.77589L4.91678 7.2844L4.86261 7.45914ZM5.88709 7.45914L6.02876 7.35055L6.17042 7.45914L6.11496 7.2844L6.2561 7.17685H6.0824L6.0285 7.00185L5.97511 7.17685H5.80115L5.94204 7.2844L5.88709 7.45914ZM6.91704 7.45914L7.0574 7.35055L7.19881 7.45914L7.1436 7.2844L7.28475 7.17685H7.11131L7.05714 7.00185L7.00376 7.17685H6.8298L6.97068 7.2844L6.91704 7.45914ZM7.49699 7.00185L7.63839 6.893L7.78006 7.00185L7.72511 6.82685L7.86574 6.71982L7.69308 6.72034L7.63813 6.5443L7.58449 6.72034L7.40923 6.71982L7.55167 6.82685L7.49699 7.00185ZM2.38188 7.91643L2.52355 7.80784L2.66496 7.91643L2.61001 7.74196L2.75089 7.63466L2.57693 7.63518L2.52303 7.45914L2.4699 7.63518L2.29568 7.63466L2.43657 7.74196L2.38188 7.91643ZM3.31808 7.91643L3.45949 7.80784L3.60115 7.91643L3.54621 7.74196L3.68683 7.63466L3.51339 7.63518L3.45923 7.45914L3.40584 7.63518L3.23214 7.63466L3.37251 7.74196L3.31808 7.91643ZM4.35063 7.91643L4.49204 7.80784L4.63345 7.91643L4.57876 7.74196L4.71938 7.63466L4.54464 7.63518L4.49178 7.45914L4.43813 7.63518L4.26443 7.63466L4.40532 7.74196L4.35063 7.91643ZM5.37563 7.91643L5.51678 7.80784L5.65845 7.91643L5.60454 7.74196L5.74438 7.63466L5.57042 7.63518L5.51678 7.45914L5.46313 7.63518L5.28943 7.63466L5.43006 7.74196L5.37563 7.91643ZM6.40402 7.91643L6.54568 7.80784L6.68709 7.91643L6.63318 7.74196L6.77303 7.63466L6.59907 7.63518L6.54542 7.45914L6.49204 7.63518L6.31808 7.63466L6.45871 7.74196L6.40402 7.91643ZM2.88006 8.37373L3.02147 8.26539L3.16287 8.37373L3.10845 8.20029L3.24881 8.09248H3.07485L3.02121 7.91643L2.96782 8.09248H2.79386L2.93475 8.20029L2.88006 8.37373ZM3.81626 8.37373L3.95766 8.26539L4.09907 8.37373L4.04438 8.20029L4.18501 8.09248H4.01079L3.9574 7.91643L3.90376 8.09248H3.7298L3.87095 8.20029L3.81626 8.37373ZM4.84907 8.37373L4.98996 8.26539L5.13162 8.37373L5.07589 8.20029L5.21756 8.09248H5.04386L4.98996 7.91643L4.93631 8.09248H4.76235L4.90324 8.20029L4.84907 8.37373ZM5.87277 8.37373L6.01496 8.26539L6.15662 8.37373L6.10193 8.20029L6.2423 8.09248H6.0686L6.0147 7.91643L5.96131 8.09248H5.78735L5.92824 8.20029L5.87277 8.37373ZM6.90141 8.37373L7.0436 8.26539L7.18527 8.37373L7.13032 8.20029L7.27147 8.09248H7.09777L7.0436 7.91643L6.98996 8.09248H6.816L6.95688 8.20029L6.90141 8.37373ZM7.48318 7.91643L7.62459 7.80784L7.766 7.91643L7.71131 7.74196L7.85219 7.63466L7.67746 7.63518L7.62433 7.45914L7.57068 7.63518L7.39621 7.63466L7.53787 7.74196L7.48318 7.91643ZM2.38188 8.83128L2.52355 8.72373L2.66496 8.83128L2.61001 8.65654L2.75089 8.54925L2.57693 8.54977L2.52303 8.37373L2.4699 8.54977L2.29568 8.54925L2.43657 8.65654L2.38188 8.83128ZM3.31808 8.83128L3.45949 8.72373L3.60115 8.83128L3.54621 8.65654L3.68683 8.54925L3.51339 8.54977L3.45923 8.37373L3.40584 8.54977L3.23214 8.54925L3.37251 8.65654L3.31808 8.83128ZM4.35063 8.83128L4.49204 8.72373L4.63345 8.83128L4.57876 8.65654L4.71938 8.54925L4.54464 8.54977L4.49178 8.37373L4.43813 8.54977L4.26443 8.54925L4.40532 8.65654L4.35063 8.83128ZM5.37563 8.83128L5.51678 8.72373L5.65845 8.83128L5.60454 8.65654L5.74438 8.54925L5.57042 8.54977L5.51678 8.37373L5.46313 8.54977L5.28943 8.54925L5.43006 8.65654L5.37563 8.83128ZM6.40402 8.83128L6.54568 8.72373L6.68709 8.83128L6.63318 8.65654L6.77303 8.54925L6.59907 8.54977L6.54542 8.37373L6.49204 8.54977L6.31808 8.54925L6.45871 8.65654L6.40402 8.83128ZM2.88006 9.28883L3.02147 9.17998L3.16287 9.28883L3.10845 9.11383L3.24881 9.00758H3.07485L3.02121 8.83128L2.96782 9.00758H2.79386L2.93475 9.11383L2.88006 9.28883ZM3.81626 9.28883L3.95766 9.17998L4.09907 9.28883L4.04438 9.11383L4.18501 9.00758H4.01079L3.9574 8.83128L3.90376 9.00758H3.7298L3.87095 9.11383L3.81626 9.28883ZM4.84907 9.28883L4.98996 9.17998L5.13162 9.28883L5.07589 9.11383L5.21756 9.00758H5.04386L4.98996 8.83128L4.93631 9.00758H4.76235L4.90324 9.11383L4.84907 9.28883ZM5.87277 9.28883L6.01496 9.17998L6.15662 9.28883L6.10193 9.11383L6.2423 9.00758H6.0686L6.0147 8.83128L5.96131 9.00758H5.78735L5.92824 9.11383L5.87277 9.28883ZM6.90141 9.28883L7.0436 9.17998L7.18527 9.28883L7.13032 9.11383L7.27147 9.00758H7.09777L7.0436 8.83128L6.98996 9.00758H6.816L6.95688 9.11383L6.90141 9.28883ZM7.48318 8.83128L7.62459 8.72373L7.766 8.83128L7.71131 8.65654L7.85219 8.54925L7.67746 8.54977L7.62433 8.37373L7.57068 8.54977L7.39621 8.54925L7.53787 8.65654L7.48318 8.83128Z" fill="white"/>
</g>
<defs>
<clipPath id="clip0_142_161">
<rect width="16.6667" height="16.6667" fill="white" transform="translate(1.66699 1.6665)"/>
</clipPath>
</defs>
</svg>
